<svg xmlns="http://www.w3.org/2000/svg" version="1.1" xmlns:xlink="http://www.w3.org/1999/xlink" width="1000" height="1000"><metadata><rdf:RDF xmlns:rdf="http://www.w3.org/1999/02/22-rdf-syntax-ns#" xmlns:dc="http://purl.org/dc/elements/1.1/"><rdf:Description><dc:creator>RealFaviconGenerator</dc:creator><dc:source>https://realfavicongenerator.net</dc:source></rdf:Description></rdf:RDF></metadata><g clip-path="url(#SvgjsClipPath1017)"><rect width="1000" height="1000" fill="#ffffff"></rect><g transform="matrix(6.173383896287151,0,0,6.173383896287151,150,150)"><svg xmlns="http://www.w3.org/2000/svg" id="pictogram" viewBox="0 0 113.39 113.39" width="113.39" height="113.39"><defs>
    <style>
      .cls-1 {
        fill: #000;
        stroke-width: 0px;
      }
    </style>
  <clipPath id="SvgjsClipPath1017"><rect width="1000" height="1000" x="0" y="0" rx="500" ry="500"></rect></clipPath></defs><path class="cls-1" d="M91.44,34.34c-4.32-1.91-8.92-3.1-13.48-2.92-1.24-4.4-3.79-8.39-6.94-11.92-6.74-7.53-14.33-10.91-14.33-10.91,0,0-7.59,3.37-14.33,10.91-3.15,3.52-5.7,7.52-6.94,11.92-4.56-.18-9.15,1.01-13.48,2.92-9.25,4.08-14.8,10.25-14.8,10.25,0,0,.86,8.26,5.94,16.99,2.38,4.08,5.39,7.74,9.18,10.28-1.58,4.28-1.87,9.02-1.39,13.72,1.02,10.05,5.18,17.24,5.18,17.24,0,0,8.12,1.73,18-.4,4.62-1,9.03-2.73,12.62-5.56,3.59,2.83,8,4.57,12.62,5.57,9.88,2.14,18,.4,18,.4,0,0,4.16-7.19,5.18-17.24.48-4.7.19-9.43-1.39-13.72,3.8-2.54,6.81-6.2,9.19-10.28,5.08-8.73,5.94-16.99,5.94-16.99,0,0-5.55-6.18-14.8-10.25ZM65.45,58.49c-.73.65-2,1.56-4,2.21-1.15.37-2.05.6-2.77.73.58.56,1.29,1.37,2.18,2.6,1.16,1.6,1.69,3.15,1.93,4.14.11.45-.38.8-.78.57-.84-.5-2.1-1.42-3.34-3.12-.97-1.34-1.55-2.33-1.89-3.08-.34.74-.92,1.71-1.86,3.01-1.16,1.6-2.47,2.58-3.34,3.12-.39.24-.88-.11-.78-.56.21-.96.7-2.44,1.94-4.14.83-1.14,1.51-1.93,2.06-2.48-.76-.13-1.75-.37-3.04-.78-1.88-.61-3.22-1.55-4-2.21-.35-.3-.17-.87.28-.92.98-.09,2.54-.09,4.55.56,1.35.44,2.32.84,3.02,1.2-.11-.76-.19-1.75-.19-3.08,0-2.11.48-3.59.87-4.49.18-.42.79-.42.96,0,.39.94.87,2.5.87,4.48,0,1.23-.06,2.16-.16,2.9.66-.31,1.52-.65,2.65-1.02,1.88-.61,3.52-.64,4.53-.56.46.04.65.61.3.91Z"></path></svg></g></g></svg>